<?xml version="1.0" standalone="no"?><!DOCTYPE svg PUBLIC "-//W3C//DTD SVG 1.1//EN" "http://www.w3.org/Graphics/SVG/1.1/DTD/svg11.dtd"><svg t="1664265123673" class="icon" viewBox="0 0 1024 1024" version="1.1" xmlns="http://www.w3.org/2000/svg" p-id="1957" xmlns:xlink="http://www.w3.org/1999/xlink" width="200" height="200"><path d="M916.968 797.124l-277-455.782V42.688h-256v298.656L107.032 797.124c-13.812 22.594-21.688 49.156-21.688 77.562 0 82.468 66.812 149.312 149.312 149.312h554.688c82.438 0 149.312-66.844 149.312-149.312 0-28.404-7.938-54.968-21.688-77.562z" fill="#E6E9ED" p-id="1958"></path><path d="M682.656 64c0 35.344-28.688 64-64 64H405.344c-35.376 0-64-28.656-64-64s28.624-64 64-64h213.312c35.312 0 64 28.656 64 64z" fill="#CCD1D9" p-id="1959"></path><path d="M829.094 652.532c-17.938 20.312-38.938 38.906-62.75 55.032-41.688 28.25-82.376 43-122.438 47.218-88.75 9.344-174.812-32.968-263.876-95.25-45.062-31.468-93.124-59.376-142.938-76.468l-130.06 214.06c-13.812 22.594-21.688 49.156-21.688 77.562 0 82.468 66.812 149.312 149.312 149.312h554.688c82.438 0 149.312-66.844 149.312-149.312 0-28.406-7.938-54.968-21.688-77.562l-87.874-144.592z" fill="#48CFAD" p-id="1960"></path></svg>