<?xml version="1.0" standalone="no"?><!DOCTYPE svg PUBLIC "-//W3C//DTD SVG 1.1//EN" "http://www.w3.org/Graphics/SVG/1.1/DTD/svg11.dtd"><svg t="1664287461654" class="icon" viewBox="0 0 1024 1024" version="1.1" xmlns="http://www.w3.org/2000/svg" p-id="996" xmlns:xlink="http://www.w3.org/1999/xlink" width="200" height="200"><path d="M512 512m-512 0a512 512 0 1 0 1024 0 512 512 0 1 0-1024 0Z" fill="#1D75B0" p-id="997"></path><path d="M713.216 462.336H310.784c-27.648 0-49.664 22.528-49.664 49.664s22.528 49.664 49.664 49.664h402.432c27.648 0 49.664-22.528 49.664-49.664s-22.528-49.664-49.664-49.664z" fill="#FFFFFF" p-id="998"></path><path d="M462.336 310.784v402.432c0 27.648 22.528 49.664 49.664 49.664s49.664-22.528 49.664-49.664V310.784c0-27.648-22.528-49.664-49.664-49.664s-49.664 22.528-49.664 49.664z" fill="#FFFFFF" p-id="999"></path></svg>