<?xml version="1.0" standalone="no"?><!DOCTYPE svg PUBLIC "-//W3C//DTD SVG 1.1//EN" "http://www.w3.org/Graphics/SVG/1.1/DTD/svg11.dtd"><svg t="1664287572410" class="icon" viewBox="0 0 1024 1024" version="1.1" xmlns="http://www.w3.org/2000/svg" p-id="5176" xmlns:xlink="http://www.w3.org/1999/xlink" width="200" height="200"><path d="M766.6 259.2c16.4 0 29.9 2.7 40.6 8.2 10.6 5.5 19.1 12.3 25.4 20.5 6.3 8.2 10.6 17.1 13.1 26.6 2.5 9.6 1.7 11.4 1.7 19.6 0 3.8-3.2 15.8-11.1 26.4-10.3 13.7-22.4 19.3-22.4 19.3l-19.4-19v430.1c0 10.9-2.2 21.4-6.6 31.5-4.4 10.1-11.4 23.1-19.7 33.9-6.8 8.9-28.5 33.3-91.1 36.5-12.6 0.6-10-6.3-25.3-6.3l-318.5-12.1c-14.2 0-27.6-2.2-40.1-6.6-12.6-4.4-23.3-10.5-32.4-18.4-9-7.9-16.1-17.5-21.3-28.7-5.2-11.2-7.8-23.9-7.8-38.1V360.8h-50.8c-0.5-0.5-0.8-1.9-0.8-4.1-0.5-2.7-0.8-11.2-0.8-25.4 0-7.1-33 4-29.7-4.7 3.3-8.7 7.6-27.6 23.2-40.9 9.8-8.4 20.6-15.9 42.6-23.7 10.8-3.8 31.7-7.4 45.9-7.4h72.9l-34.7-28c0-14.2 2.6-37.9 23.9-56 23.7-20 43.7-21.6 77.5-21.6l240.4 2c19.1 0 32.4 10 39.7 20.2 7.4 10.1 11.1 22.3 11.1 36.5v50.8c11.5 0.5 23.8 0.8 36.9 0.8h37.6zM342.1 297h299.1v-89.4H342.1V297z m-6.2 527c33.2 0 49.8-12.4 49.8-37.3V364.1h-96.5v422.6c0 12.8 3.4 22.2 10.1 28.2 6.8 6.1 19 9.1 36.6 9.1z m152.3-5c19.5 0 32.6-2.9 39.5-8.6 6.9-5.7 10.3-14.9 10.3-27.5V364.1H431.5v418.8c0 24.1 18.9 36.1 56.7 36.1z m157.6 0c18.8 0 31.4-2.9 37.7-8.6 6.3-5.7 9.4-15 9.4-27.6V364.1H594v418.7c0 24.1 17.3 36.2 51.8 36.2z m22.5-43.7" fill="#2280BF" p-id="5177"></path><path d="M731.9 278.2c16.4 0 29.9 2.7 40.6 8.2 10.6 5.5 19.1 12.3 25.4 20.5 6.3 8.2 10.6 17.1 13.1 26.6 2.5 9.6 3.7 18.4 3.7 26.6 0 3.8-0.1 6.8-0.4 9-0.3 2.2-0.4 4.1-0.4 5.7v4.9h-54.1v430.1c0 10.9-2.2 21.4-6.6 31.5-4.4 10.1-10.6 19-18.8 26.6-8.2 7.6-18.2 13.8-29.9 18.4-11.7 4.6-25.3 7-40.6 7H298.6c-14.2 0-27.6-2.2-40.1-6.6-12.6-4.4-23.3-10.5-32.4-18.4-9-7.9-16.1-17.5-21.3-28.7-5.2-11.2-7.8-23.9-7.8-38.1V379.8h-50.8c-0.5-0.5-0.8-1.9-0.8-4.1-0.5-2.7-0.8-11.2-0.8-25.4 0-7.1 1.6-15 4.9-23.8 3.3-8.7 8.2-16.8 14.7-24.2 6.6-7.4 15-13.5 25.4-18.4 10.4-4.9 22.7-7.4 36.9-7.4h72.9v-50c0-14.2 4.9-26.4 14.7-36.5 9.8-10.1 21.8-15.2 36-15.2h256.4c19.1 0 32.4 5 39.7 15.2 7.4 10.1 11.1 22.3 11.1 36.5v50.8c11.5 0.5 23.8 0.8 36.9 0.8h37.7z m-381.7 0h256.4v-51.6H350.2v51.6z m-25.4 518.6c17.5 0 26.2-11.2 26.2-33.6V383.1h-50.8v380.1c0 11.5 1.8 19.9 5.3 25.4 3.6 5.5 10 8.2 19.3 8.2z m154.8-0.8c9.3 0 15.6-2.6 18.8-7.8 3.3-5.2 4.9-13.5 4.9-25V383.1h-50.8v380.1c0.1 21.9 9.1 32.8 27.1 32.8z m154-1.7c9.8 0 16.4-2.6 19.7-7.8 3.3-5.2 4.9-13.5 4.9-25V383.1h-51.6v378.5c0 21.8 9 32.7 27 32.7z m0 0" fill="#4EB3FF" p-id="5178"></path></svg>