<?xml version="1.0" standalone="no"?><!DOCTYPE svg PUBLIC "-//W3C//DTD SVG 1.1//EN" "http://www.w3.org/Graphics/SVG/1.1/DTD/svg11.dtd"><svg t="1664287518006" class="icon" viewBox="0 0 1024 1024" version="1.1" xmlns="http://www.w3.org/2000/svg" p-id="2396" xmlns:xlink="http://www.w3.org/1999/xlink" width="200" height="200"><path d="M0 0h1024v1024H0z" fill="#1296db" opacity=".01" p-id="2397"></path><path d="M512 0c282.7776 0 512 229.2224 512 512s-229.2224 512-512 512S0 794.7776 0 512 229.2224 0 512 0z m0 204.8a51.2 51.2 0 0 0-51.2 51.2v385.792L345.6512 527.36a52.6336 52.6336 0 0 0-69.3248-4.352l-4.9152 4.352c-18.944 18.8928-20.4288 48.64-4.4032 69.12l4.4032 4.9664L474.88 803.84c18.944 18.944 48.6912 20.3776 69.3248 4.352l4.9152-4.352 203.4688-202.3936c20.5312-20.48 20.5312-53.6064 0-74.0864a52.6336 52.6336 0 0 0-69.3248-4.352l-4.9152 4.352L563.2 641.792V256a51.2 51.2 0 0 0-51.2-51.2z" fill="#1296db" p-id="2398"></path></svg>