<?xml version="1.0" encoding="UTF-8" standalone="no"?>
<svg
   t="1664106876763"
   class="icon"
   viewBox="0 0 1024 1024"
   version="1.1"
   p-id="6680"
   width="200"
   height="200"
   id="svg8"
   sodipodi:docname="工具区.svg"
   inkscape:version="1.2.1 (9c6d41e410, 2022-07-14)"
   xmlns:inkscape="http://www.inkscape.org/namespaces/inkscape"
   xmlns:sodipodi="http://sodipodi.sourceforge.net/DTD/sodipodi-0.dtd"
   xmlns="http://www.w3.org/2000/svg"
   xmlns:svg="http://www.w3.org/2000/svg">
  <defs
     id="defs12" />
  <sodipodi:namedview
     id="namedview10"
     pagecolor="#ffffff"
     bordercolor="#000000"
     borderopacity="0.25"
     inkscape:showpageshadow="2"
     inkscape:pageopacity="0.0"
     inkscape:pagecheckerboard="0"
     inkscape:deskcolor="#d1d1d1"
     showgrid="false"
     inkscape:zoom="1.9475"
     inkscape:cx="-6.4184852"
     inkscape:cy="100.89859"
     inkscape:window-width="1920"
     inkscape:window-height="969"
     inkscape:window-x="0"
     inkscape:window-y="0"
     inkscape:window-maximized="1"
     inkscape:current-layer="svg8" />
  <path
     d="M0 0m136.533333 0l750.933334 0q136.533333 0 136.533333 136.533333l0 750.933334q0 136.533333-136.533333 136.533333l-750.933334 0q-136.533333 0-136.533333-136.533333l0-750.933334q0-136.533333 136.533333-136.533333Z"
     fill="#30384F"
     p-id="6681"
     id="path2" />
  <path
     d="M300.373333 409.6m27.306667 0l409.6 0q27.306667 0 27.306667 27.306667l0 259.413333q0 27.306667-27.306667 27.306667l-409.6 0q-27.306667 0-27.306667-27.306667l0-259.413333q0-27.306667 27.306667-27.306667Z"
     fill="#59554A"
     p-id="6682"
     id="path4" />
  <path
     d="M 744.50261,750.93333 H 283.68896 C 262.74982,750.9258 245.77507,733.95716 245.76,713.01803 V 390.90859 c 0.0225,-20.92005 16.96798,-37.8777 37.888,-37.91531 h 124.04053 v -49.152 c 0.0226,-20.91561 16.9724,-37.86543 37.888,-37.888 h 136.91563 c 20.92316,0.015 37.8852,16.96486 37.91531,37.888 v 49.152 h 124.1088 c 20.91209,0.0301 37.84237,17.0032 37.81973,37.91531 v 322.10944 c 0.0226,20.91743 -16.91596,37.89269 -37.83339,37.9153 z M 596.81451,303.80032 c 0.0227,-7.9238 -6.39852,-14.35725 -14.32235,-14.34965 H 445.61749 c -7.89625,0.007 -14.29979,6.39881 -14.32234,14.29504 v 49.152 h 165.51936 v -49.152 z m 161.92853,225.28 c -1.80203,1.20422 -3.90903,1.87183 -6.07573,1.92512 h -71.2704 v 53.49376 c 0.008,6.52349 -5.28666,11.8116 -11.81014,11.79648 h -65.20832 c -6.50968,-0.008 -11.78283,-5.28679 -11.78282,-11.79648 v -55.76021 c -1.9235,1.46301 -4.26043,2.28022 -6.67648,2.33472 h -68.26667 c 0.6571,-4.0525 1.04933,-8.14352 1.17419,-12.24704 -0.15143,-3.81082 -0.53443,-7.6089 -1.14688,-11.37323 h 68.26666 c 2.41572,0.0564 4.75209,0.87337 6.67648,2.33472 v -23.21067 c 0,-6.50968 5.27315,-11.78894 11.78283,-11.79648 h 65.19467 c 6.52347,-0.0151 11.81771,5.273 11.81013,11.79648 v 20.84864 h 71.2704 c 2.16645,0.0548 4.27305,0.72227 6.07573,1.92512 V 390.90859 c 0.0227,-7.88209 -6.3447,-14.29224 -14.22677,-14.32235 H 283.68896 c -7.90068,0.0225 -14.29985,6.42167 -14.32235,14.32235 v 116.5312 h 59.46027 c -0.61367,3.76875 -0.99668,7.57145 -1.14688,11.38688 0.13978,4.11851 0.55027,8.22336 1.2288,12.288 h -59.54219 v 181.90336 c 0.03,7.89534 6.42698,14.28623 14.32235,14.30869 h 460.81365 c 7.87673,-0.0301 14.24189,-6.43193 14.22678,-14.30869 V 529.14859 Z m -351.87371,58.08128 -52.87936,52.92032 c -4.8977,4.88103 -11.53104,7.62078 -18.44565,7.61856 -5.64482,0.0453 -11.12742,-1.88685 -15.49653,-5.46133 -5.41275,-4.49884 -8.69133,-11.06096 -9.03851,-18.09067 -0.37256,-7.02047 2.25273,-13.86907 7.22261,-18.8416 l 53.35723,-53.248 c -8.50039,-22.00879 -3.56319,-46.94529 12.68223,-64.05464 16.24542,-17.10935 40.8929,-23.33084 63.31222,-15.9812 3.71777,1.15141 6.54201,4.1941 7.41376,7.9872 0.96811,3.8725 -0.19087,7.96791 -3.04469,10.75883 l -21.18997,21.10805 c -4.36173,4.13471 -4.94791,10.87581 -1.36534,15.70133 4.23638,5.24139 12.08603,5.64246 16.83456,0.86016 l 21.6815,-21.69514 c 5.96788,-6.04598 16.22127,-3.60717 18.82794,4.47829 7.3015,22.37659 1.08747,46.95756 -15.9708,63.17603 -17.05827,16.21848 -41.92139,21.18471 -63.9012,12.76381 z"
     fill="#ffc738"
     p-id="6683"
     id="path6"
     sodipodi:nodetypes="cccccccccccccccccccccccccccccscccccccsccccccccccccccccccccccccccccsccccccccsc" />
</svg>
