<?xml version="1.0" standalone="no"?><!DOCTYPE svg PUBLIC "-//W3C//DTD SVG 1.1//EN" "http://www.w3.org/Graphics/SVG/1.1/DTD/svg11.dtd"><svg t="1664602805289" class="icon" viewBox="0 0 1024 1024" version="1.1" xmlns="http://www.w3.org/2000/svg" p-id="3975" xmlns:xlink="http://www.w3.org/1999/xlink" width="200" height="200"><path d="M514 65.5c-246.5 0-446.3 199.8-446.3 446.3S267.5 958.1 514 958.1s446.3-199.8 446.3-446.3S760.5 65.5 514 65.5zM407.3 752l-26.1 79.8-152.6-170.3 223.7-47-23 70.3c3.8 1.4 7.6 2.8 11.5 4 132.2 43.3 272.5-6.2 350.5-112.6-62.7 147.7-228.7 225.5-384 175.8z m169.4-334.7l16.7-71.8c-3.9-1.1-7.8-2.1-11.8-3-135.5-31.5-270.9 30.1-339.2 143 49.5-152.5 208-244.6 367-208.8l19.1-82 166.9 156.1-218.7 66.5z" fill="#29ABE2" p-id="3976"></path></svg>