<?xml version="1.0" standalone="no"?><!DOCTYPE svg PUBLIC "-//W3C//DTD SVG 1.1//EN" "http://www.w3.org/Graphics/SVG/1.1/DTD/svg11.dtd"><svg t="1664287502997" class="icon" viewBox="0 0 1024 1024" version="1.1" xmlns="http://www.w3.org/2000/svg" p-id="2184" xmlns:xlink="http://www.w3.org/1999/xlink" width="200" height="200"><path d="M0 0h1024v1024H0z" fill="#1296db" opacity=".01" p-id="2185"></path><path d="M512 0c282.7776 0 512 229.2224 512 512s-229.2224 512-512 512S0 794.7776 0 512 229.2224 0 512 0z m-37.12 220.16L271.36 422.5536C250.88 443.0336 250.88 476.16 271.36 496.64c20.48 20.48 53.76 20.48 74.24 0L460.8 382.208V768a51.2 51.2 0 0 0 45.2096 50.8416L512 819.2a51.2 51.2 0 0 0 51.2-51.2V382.208L678.3488 496.64c20.48 20.48 53.76 20.48 74.24 0 20.5312-20.48 20.5312-53.6576 0-74.0864L549.12 220.16c-20.48-20.48-53.76-20.48-74.24 0z" fill="#1296db" p-id="2186"></path></svg>